<?xml version="1.0" encoding="utf-8"?>
<!-- Generator: Adobe Illustrator 16.0.0, SVG Export Plug-In . SVG Version: 6.00 Build 0)  -->
<!DOCTYPE svg PUBLIC "-//W3C//DTD SVG 1.1//EN" "http://www.w3.org/Graphics/SVG/1.1/DTD/svg11.dtd">
<svg version="1.1" id="图层_1" xmlns="http://www.w3.org/2000/svg" xmlns:xlink="http://www.w3.org/1999/xlink" x="0px" y="0px"
	 width="841.89px" height="595.28px" viewBox="0 0 841.89 595.28" enable-background="new 0 0 841.89 595.28" xml:space="preserve">
<g>
	<g>
		
			<ellipse fill="none" stroke="#000000" stroke-width="10" stroke-miterlimit="10" cx="406.213" cy="230.012" rx="112.886" ry="112.736"/>
		
			<line fill="none" stroke="#000000" stroke-width="10" stroke-miterlimit="10" x1="336.223" y1="141.833" x2="336.223" y2="317.083"/>
		
			<line fill="none" stroke="#000000" stroke-width="10" stroke-miterlimit="10" x1="475.703" y1="141.833" x2="475.703" y2="317.083"/>
		
			<line fill="none" stroke="#000000" stroke-width="10" stroke-miterlimit="10" x1="336.056" y1="143.833" x2="475.703" y2="210.016"/>
		
			<line fill="none" stroke="#000000" stroke-width="10" stroke-miterlimit="10" x1="475.704" y1="143.833" x2="336.057" y2="210.016"/>
	</g>
	<g>
		<g>
			<polyline fill="none" stroke="#595757" stroke-width="0.2" stroke-miterlimit="10" points="519.099,342.397 519.099,342.897 
				518.599,342.897 			"/>
			
				<line fill="none" stroke="#595757" stroke-width="0.2" stroke-miterlimit="10" stroke-dasharray="0.999,0.999" x1="517.6" y1="342.897" x2="294.327" y2="342.897"/>
			<polyline fill="none" stroke="#595757" stroke-width="0.2" stroke-miterlimit="10" points="293.827,342.897 293.327,342.897 
				293.327,342.397 			"/>
			
				<line fill="none" stroke="#595757" stroke-width="0.2" stroke-miterlimit="10" stroke-dasharray="0.999,0.999" x1="293.327" y1="341.398" x2="293.327" y2="118.125"/>
			<polyline fill="none" stroke="#595757" stroke-width="0.2" stroke-miterlimit="10" points="293.327,117.626 293.327,117.126 
				293.827,117.126 			"/>
			
				<line fill="none" stroke="#595757" stroke-width="0.2" stroke-miterlimit="10" stroke-dasharray="0.999,0.999" x1="294.826" y1="117.126" x2="518.099" y2="117.126"/>
			<polyline fill="none" stroke="#595757" stroke-width="0.2" stroke-miterlimit="10" points="518.599,117.126 519.099,117.126 
				519.099,117.626 			"/>
			
				<line fill="none" stroke="#595757" stroke-width="0.2" stroke-miterlimit="10" stroke-dasharray="0.999,0.999" x1="519.099" y1="118.625" x2="519.099" y2="341.898"/>
		</g>
	</g>
	<g>
		<g>
			<polyline fill="none" stroke="#3E3A39" stroke-width="0.2" stroke-miterlimit="10" points="432.642,481.713 432.642,482.213 
				432.142,482.213 			"/>
			
				<line fill="none" stroke="#3E3A39" stroke-width="0.2" stroke-miterlimit="10" stroke-dasharray="0.9951,0.9951" x1="431.146" y1="482.213" x2="294.325" y2="482.213"/>
			<polyline fill="none" stroke="#3E3A39" stroke-width="0.2" stroke-miterlimit="10" points="293.827,482.213 293.327,482.213 
				293.327,481.713 			"/>
			
				<line fill="none" stroke="#3E3A39" stroke-width="0.2" stroke-miterlimit="10" stroke-dasharray="0.9951,0.9951" x1="293.327" y1="480.718" x2="293.327" y2="343.895"/>
			<polyline fill="none" stroke="#3E3A39" stroke-width="0.2" stroke-miterlimit="10" points="293.327,343.397 293.327,342.897 
				293.827,342.897 			"/>
			
				<line fill="none" stroke="#3E3A39" stroke-width="0.2" stroke-miterlimit="10" stroke-dasharray="0.9951,0.9951" x1="294.822" y1="342.897" x2="431.644" y2="342.897"/>
			<polyline fill="none" stroke="#3E3A39" stroke-width="0.2" stroke-miterlimit="10" points="432.142,342.897 432.642,342.897 
				432.642,343.397 			"/>
			
				<line fill="none" stroke="#3E3A39" stroke-width="0.2" stroke-miterlimit="10" stroke-dasharray="0.9951,0.9951" x1="432.642" y1="344.393" x2="432.642" y2="481.216"/>
		</g>
	</g>
	<g>
		<g>
			<polyline fill="none" stroke="#3E3A39" stroke-width="0.2" stroke-miterlimit="10" points="519.033,481.713 519.033,482.213 
				518.533,482.213 			"/>
			
				<line fill="none" stroke="#3E3A39" stroke-width="0.2" stroke-miterlimit="10" stroke-dasharray="1.002,1.002" x1="517.531" y1="482.213" x2="433.862" y2="482.213"/>
			<polyline fill="none" stroke="#3E3A39" stroke-width="0.2" stroke-miterlimit="10" points="433.361,482.213 432.861,482.213 
				432.861,481.713 			"/>
			
				<line fill="none" stroke="#3E3A39" stroke-width="0.2" stroke-miterlimit="10" stroke-dasharray="0.9924,0.9924" x1="432.861" y1="480.721" x2="432.861" y2="397.853"/>
			<polyline fill="none" stroke="#3E3A39" stroke-width="0.2" stroke-miterlimit="10" points="432.861,397.356 432.861,396.856 
				433.361,396.856 			"/>
			
				<line fill="none" stroke="#3E3A39" stroke-width="0.2" stroke-miterlimit="10" stroke-dasharray="1.002,1.002" x1="434.363" y1="396.856" x2="518.032" y2="396.856"/>
			<polyline fill="none" stroke="#3E3A39" stroke-width="0.2" stroke-miterlimit="10" points="518.533,396.856 519.033,396.856 
				519.033,397.356 			"/>
			
				<line fill="none" stroke="#3E3A39" stroke-width="0.2" stroke-miterlimit="10" stroke-dasharray="0.9924,0.9924" x1="519.033" y1="398.349" x2="519.033" y2="481.217"/>
		</g>
	</g>
	<g>
		<g>
			<polyline fill="none" stroke="#3E3A39" stroke-width="0.2" stroke-miterlimit="10" points="519.099,396.355 519.099,396.855 
				518.599,396.855 			"/>
			
				<line fill="none" stroke="#3E3A39" stroke-width="0.2" stroke-miterlimit="10" stroke-dasharray="1.0113,1.0113" x1="517.587" y1="396.855" x2="467.53" y2="396.855"/>
			<polyline fill="none" stroke="#3E3A39" stroke-width="0.2" stroke-miterlimit="10" points="467.024,396.855 466.524,396.855 
				466.524,396.355 			"/>
			
				<line fill="none" stroke="#3E3A39" stroke-width="0.2" stroke-miterlimit="10" stroke-dasharray="0.9992,0.9992" x1="466.524" y1="395.356" x2="466.524" y2="343.898"/>
			<polyline fill="none" stroke="#3E3A39" stroke-width="0.2" stroke-miterlimit="10" points="466.524,343.398 466.524,342.898 
				467.024,342.898 			"/>
			
				<line fill="none" stroke="#3E3A39" stroke-width="0.2" stroke-miterlimit="10" stroke-dasharray="1.0113,1.0113" x1="468.036" y1="342.898" x2="518.093" y2="342.898"/>
			<polyline fill="none" stroke="#3E3A39" stroke-width="0.2" stroke-miterlimit="10" points="518.599,342.898 519.099,342.898 
				519.099,343.398 			"/>
			
				<line fill="none" stroke="#3E3A39" stroke-width="0.2" stroke-miterlimit="10" stroke-dasharray="0.9992,0.9992" x1="519.099" y1="344.397" x2="519.099" y2="395.855"/>
		</g>
	</g>
	
		<ellipse fill="none" stroke="#3E3A39" stroke-width="0.2" stroke-miterlimit="10" cx="405.88" cy="317.83" rx="69.657" ry="69.797"/>
	
		<ellipse fill="none" stroke="#3E3A39" stroke-width="0.2" stroke-miterlimit="10" cx="362.984" cy="412.485" rx="69.657" ry="69.728"/>
	
		<ellipse fill="none" stroke="#3E3A39" stroke-width="0.2" stroke-miterlimit="10" cx="475.979" cy="439.527" rx="43.117" ry="42.414"/>
	<circle fill="none" stroke="#3E3A39" stroke-width="0.2" stroke-miterlimit="10" cx="475.703" cy="230.083" r="87.749"/>
	<g>
		<g>
			<polyline fill="none" stroke="#3E3A39" stroke-width="0.2" stroke-miterlimit="10" points="563.786,317.556 563.786,318.056 
				563.286,318.056 			"/>
			
				<line fill="none" stroke="#3E3A39" stroke-width="0.2" stroke-miterlimit="10" stroke-dasharray="1.0009,1.0009" x1="562.285" y1="318.056" x2="388.62" y2="318.056"/>
			<polyline fill="none" stroke="#3E3A39" stroke-width="0.2" stroke-miterlimit="10" points="388.12,318.056 387.62,318.056 
				387.62,317.556 			"/>
			
				<line fill="none" stroke="#3E3A39" stroke-width="0.2" stroke-miterlimit="10" stroke-dasharray="0.9997,0.9997" x1="387.62" y1="316.556" x2="387.62" y2="143.11"/>
			<polyline fill="none" stroke="#3E3A39" stroke-width="0.2" stroke-miterlimit="10" points="387.62,142.61 387.62,142.11 
				388.12,142.11 			"/>
			
				<line fill="none" stroke="#3E3A39" stroke-width="0.2" stroke-miterlimit="10" stroke-dasharray="1.0009,1.0009" x1="389.121" y1="142.11" x2="562.786" y2="142.11"/>
			<polyline fill="none" stroke="#3E3A39" stroke-width="0.2" stroke-miterlimit="10" points="563.286,142.11 563.786,142.11 
				563.786,142.61 			"/>
			
				<line fill="none" stroke="#3E3A39" stroke-width="0.2" stroke-miterlimit="10" stroke-dasharray="0.9997,0.9997" x1="563.786" y1="143.61" x2="563.786" y2="317.056"/>
		</g>
	</g>
	<g>
		<g>
			<polyline fill="none" stroke="#3E3A39" stroke-width="0.2" stroke-miterlimit="10" points="387.496,317.339 387.496,317.839 
				386.996,317.839 			"/>
			
				<line fill="none" stroke="#3E3A39" stroke-width="0.2" stroke-miterlimit="10" stroke-dasharray="1.006,1.006" x1="385.99" y1="317.839" x2="279.857" y2="317.839"/>
			<polyline fill="none" stroke="#3E3A39" stroke-width="0.2" stroke-miterlimit="10" points="279.354,317.839 278.854,317.839 
				278.854,317.339 			"/>
			
				<line fill="none" stroke="#3E3A39" stroke-width="0.2" stroke-miterlimit="10" stroke-dasharray="1.0047,1.0047" x1="278.854" y1="316.334" x2="278.854" y2="210.336"/>
			<polyline fill="none" stroke="#3E3A39" stroke-width="0.2" stroke-miterlimit="10" points="278.854,209.833 278.854,209.333 
				279.354,209.333 			"/>
			
				<line fill="none" stroke="#3E3A39" stroke-width="0.2" stroke-miterlimit="10" stroke-dasharray="1.006,1.006" x1="280.36" y1="209.333" x2="386.493" y2="209.333"/>
			<polyline fill="none" stroke="#3E3A39" stroke-width="0.2" stroke-miterlimit="10" points="386.996,209.333 387.496,209.333 
				387.496,209.833 			"/>
			
				<line fill="none" stroke="#3E3A39" stroke-width="0.2" stroke-miterlimit="10" stroke-dasharray="1.0047,1.0047" x1="387.496" y1="210.838" x2="387.496" y2="316.837"/>
		</g>
	</g>
	<g>
		<g>
			<polyline fill="none" stroke="#3E3A39" stroke-width="0.2" stroke-miterlimit="10" points="346.814,208.483 346.814,208.983 
				346.314,208.983 			"/>
			
				<line fill="none" stroke="#3E3A39" stroke-width="0.2" stroke-miterlimit="10" stroke-dasharray="0.9994,0.9994" x1="345.315" y1="208.983" x2="279.854" y2="208.983"/>
			<polyline fill="none" stroke="#3E3A39" stroke-width="0.2" stroke-miterlimit="10" points="279.354,208.983 278.854,208.983 
				278.854,208.483 			"/>
			
				<line fill="none" stroke="#3E3A39" stroke-width="0.2" stroke-miterlimit="10" stroke-dasharray="1.0134,1.0134" x1="278.854" y1="207.47" x2="278.854" y2="143.117"/>
			<polyline fill="none" stroke="#3E3A39" stroke-width="0.2" stroke-miterlimit="10" points="278.854,142.61 278.854,142.11 
				279.354,142.11 			"/>
			
				<line fill="none" stroke="#3E3A39" stroke-width="0.2" stroke-miterlimit="10" stroke-dasharray="0.9994,0.9994" x1="280.354" y1="142.11" x2="345.814" y2="142.11"/>
			<polyline fill="none" stroke="#3E3A39" stroke-width="0.2" stroke-miterlimit="10" points="346.314,142.11 346.814,142.11 
				346.814,142.61 			"/>
			
				<line fill="none" stroke="#3E3A39" stroke-width="0.2" stroke-miterlimit="10" stroke-dasharray="1.0134,1.0134" x1="346.814" y1="143.624" x2="346.814" y2="207.977"/>
		</g>
	</g>
	<g>
		<g>
			<polyline fill="none" stroke="#3E3A39" stroke-width="0.2" stroke-miterlimit="10" points="387.621,181.921 387.621,182.421 
				387.121,182.421 			"/>
			
				<line fill="none" stroke="#3E3A39" stroke-width="0.2" stroke-miterlimit="10" stroke-dasharray="1.0192,1.0192" x1="386.102" y1="182.421" x2="347.881" y2="182.421"/>
			<polyline fill="none" stroke="#3E3A39" stroke-width="0.2" stroke-miterlimit="10" points="347.371,182.421 346.871,182.421 
				346.871,181.921 			"/>
			
				<line fill="none" stroke="#3E3A39" stroke-width="0.2" stroke-miterlimit="10" stroke-dasharray="1.008,1.008" x1="346.871" y1="180.914" x2="346.871" y2="143.114"/>
			<polyline fill="none" stroke="#3E3A39" stroke-width="0.2" stroke-miterlimit="10" points="346.871,142.61 346.871,142.11 
				347.371,142.11 			"/>
			
				<line fill="none" stroke="#3E3A39" stroke-width="0.2" stroke-miterlimit="10" stroke-dasharray="1.0192,1.0192" x1="348.391" y1="142.11" x2="386.611" y2="142.11"/>
			<polyline fill="none" stroke="#3E3A39" stroke-width="0.2" stroke-miterlimit="10" points="387.121,142.11 387.621,142.11 
				387.621,142.61 			"/>
			
				<line fill="none" stroke="#3E3A39" stroke-width="0.2" stroke-miterlimit="10" stroke-dasharray="1.008,1.008" x1="387.621" y1="143.618" x2="387.621" y2="181.417"/>
		</g>
	</g>
	
		<ellipse fill="none" stroke="#3E3A39" stroke-width="0.2" stroke-miterlimit="10" cx="333.176" cy="263.729" rx="54.321" ry="54.299"/>
	<path fill="none" stroke="#000000" stroke-width="0.5" stroke-miterlimit="10" d="M563.277,142.116
		c0,96.893-78.844,175.439-176.1,175.439"/>
	<path fill="none" stroke="#000000" stroke-width="0.5" stroke-miterlimit="10" d="M387.178,317.555
		c-59.698,0-108.095-48.43-108.095-108.17"/>
	<path fill="none" stroke="#000000" stroke-width="0.5" stroke-miterlimit="10" d="M279.083,209.431
		c0-37.175,30.368-67.312,67.828-67.312"/>
	<path fill="none" stroke="#000000" stroke-width="0.5" stroke-miterlimit="10" d="M346.911,142.119
		c22.267,0,40.317,17.964,40.317,40.123"/>
	<path fill="none" stroke="#000000" stroke-width="0.5" stroke-miterlimit="10" d="M387.229,181.92
		c0,15.312-12.413,27.726-27.726,27.726"/>
	<path fill="none" stroke="#000000" stroke-width="0.5" stroke-miterlimit="10" d="M293.33,342.897
		c0-124.689,101.081-225.77,225.769-225.77"/>
	<path fill="none" stroke="#000000" stroke-width="0.5" stroke-miterlimit="10" d="M432.642,481.94
		c-76.94,0-139.313-62.253-139.313-139.043"/>
	<path fill="none" stroke="#000000" stroke-width="0.5" stroke-miterlimit="10" d="M519.058,396.507
		c0,47.185-38.7,85.436-86.438,85.436"/>
	<path fill="none" stroke="#000000" stroke-width="0.5" stroke-miterlimit="10" d="M465.831,343.054
		c29.398,0,53.23,23.932,53.23,53.453"/>
	<path fill="none" stroke="#000000" stroke-width="0.5" stroke-miterlimit="10" d="M432.872,375.846
		c0-18.113,14.756-32.796,32.959-32.796"/>
	<g>
		<g>
			<polyline fill="none" stroke="#3E3A39" stroke-width="0.2" stroke-miterlimit="10" points="466.468,375.35 466.468,375.85 
				465.968,375.85 			"/>
			
				<line fill="none" stroke="#3E3A39" stroke-width="0.2" stroke-miterlimit="10" stroke-dasharray="0.993,0.993" x1="464.975" y1="375.85" x2="433.694" y2="375.85"/>
			<polyline fill="none" stroke="#3E3A39" stroke-width="0.2" stroke-miterlimit="10" points="433.198,375.85 432.698,375.85 
				432.698,375.35 			"/>
			
				<line fill="none" stroke="#3E3A39" stroke-width="0.2" stroke-miterlimit="10" stroke-dasharray="1.0308,1.0308" x1="432.698" y1="374.318" x2="432.698" y2="343.909"/>
			<polyline fill="none" stroke="#3E3A39" stroke-width="0.2" stroke-miterlimit="10" points="432.698,343.394 432.698,342.894 
				433.198,342.894 			"/>
			
				<line fill="none" stroke="#3E3A39" stroke-width="0.2" stroke-miterlimit="10" stroke-dasharray="0.993,0.993" x1="434.191" y1="342.894" x2="465.472" y2="342.894"/>
			<polyline fill="none" stroke="#3E3A39" stroke-width="0.2" stroke-miterlimit="10" points="465.968,342.894 466.468,342.894 
				466.468,343.394 			"/>
			
				<line fill="none" stroke="#3E3A39" stroke-width="0.2" stroke-miterlimit="10" stroke-dasharray="1.0308,1.0308" x1="466.468" y1="344.425" x2="466.468" y2="374.834"/>
		</g>
	</g>
</g>
</svg>
