<?xml version="1.0" encoding="UTF-8" standalone="no"?>
<!-- Created with Inkscape (http://www.inkscape.org/) -->

<svg
   xmlns:dc="http://purl.org/dc/elements/1.1/"
   xmlns:cc="http://creativecommons.org/ns#"
   xmlns:rdf="http://www.w3.org/1999/02/22-rdf-syntax-ns#"
   xmlns:svg="http://www.w3.org/2000/svg"
   xmlns="http://www.w3.org/2000/svg"
   xmlns:sodipodi="http://sodipodi.sourceforge.net/DTD/sodipodi-0.dtd"
   xmlns:inkscape="http://www.inkscape.org/namespaces/inkscape"
   width="54.419712mm"
   height="7.8704724mm"
   viewBox="0 0 192.82575 27.887501"
   id="svg4406"
   version="1.1"
   inkscape:version="0.91 r13725"
   sodipodi:docname="MannLabLogo.svg">
  <defs
     id="defs4408" />
  <sodipodi:namedview
     id="base"
     pagecolor="#ffffff"
     bordercolor="#666666"
     borderopacity="1.0"
     inkscape:pageopacity="0.0"
     inkscape:pageshadow="2"
     inkscape:zoom="2.8"
     inkscape:cx="103.67109"
     inkscape:cy="-66.480205"
     inkscape:document-units="px"
     inkscape:current-layer="layer1"
     showgrid="false"
     inkscape:window-width="1855"
     inkscape:window-height="1056"
     inkscape:window-x="65"
     inkscape:window-y="24"
     inkscape:window-maximized="1"
     fit-margin-top="0"
     fit-margin-left="0"
     fit-margin-right="0"
     fit-margin-bottom="0" />
  <metadata
     id="metadata4411">
    <rdf:RDF>
      <cc:Work
         rdf:about="">
        <dc:format>image/svg+xml</dc:format>
        <dc:type
           rdf:resource="http://purl.org/dc/dcmitype/StillImage" />
        <dc:title></dc:title>
      </cc:Work>
    </rdf:RDF>
  </metadata>
  <g
     inkscape:label="Layer 1"
     inkscape:groupmode="layer"
     id="layer1"
     transform="translate(-14.081245,-28.34043)">
    <g
       transform="matrix(1.25,0,0,-1.25,-739.01293,666.56853)"
       id="g4281"
       inkscape:export-xdpi="419.54263"
       inkscape:export-ydpi="419.54263">
      <g
         transform="translate(625.86834,488.27248)"
         id="g312">
        <path
           inkscape:connector-curvature="0"
           id="path314"
           style="fill:#3df2a8;fill-opacity:1;fill-rule:nonzero;stroke:none"
           d="m 0,0 c -0.012,0 -0.023,0 -0.035,0 -1.306,0.064 -1.053,5.843 -1.463,12.748 -0.215,3.624 -0.414,6.969 -1.097,7 l -0.002,0 c -0.058,0 -0.998,0.063 -1.056,-0.998 -0.111,-1.992 -0.489,-4.555 -0.686,-7.049 -0.5,-6.305 -0.731,-8.013 -1.405,-8.013 -0.812,0 -1.242,2.723 -1.967,8.5 -0.27,2.154 -0.324,3.42 -0.827,3.42 -0.563,0 -0.612,-0.549 -0.879,-2.212 -0.692,-4.326 -1.106,-6.353 -1.852,-6.309 -0.713,0.047 -0.994,1.695 -1.391,4.38 -0.191,1.288 -0.439,2.689 -1.037,2.689 -0.48,0 -0.768,-0.242 -1.099,-1.329 -0.556,-1.822 -1.144,-3.702 -2.183,-3.655 -0.757,0.036 -1.389,0.865 -2.121,1.825 -1.014,1.33 -2.277,2.986 -4.293,3.117 l 0.029,0.43 c 2.211,-0.144 3.54,-1.886 4.607,-3.286 0.666,-0.874 1.073,-0.659 1.63,-0.686 0.709,-0.027 1.459,0.873 1.919,2.381 0.54,1.773 0.904,2.861 1.545,2.904 0.753,0.046 1.016,-1.53 1.43,-4.326 0.206,-1.394 0.499,-2.9 1.002,-2.852 0.646,0.048 1.064,2.761 1.388,4.786 0.609,3.799 0.822,4.757 1.313,4.708 0.432,-0.043 0.619,-0.93 1.247,-5.931 0.364,-2.909 0.718,-5.643 1.341,-5.656 0.491,0.084 0.92,1.946 1.173,5.148 0.617,7.78 1.021,10.576 2.04,10.576 0.009,0 0.018,0 0.027,-10e-4 0.97,-0.044 1.242,-2.939 1.635,-9.536 0.268,-4.52 0.124,-7.939 1.128,-8.087 0.447,-0.067 1.714,5.549 1.755,6.694 L 2.282,7.033 C 2.267,6.594 1.727,1.135 0.734,0.223 0.578,0.079 0.184,0 0,0" />
      </g>
      <g
         transform="translate(643.67304,493.07378)"
         id="g316">
        <path
           inkscape:connector-curvature="0"
           id="path318"
           style="fill:#3df2a8;fill-opacity:1;fill-rule:nonzero;stroke:none"
           d="M 0,0 C -0.069,-0.09 -0.029,-0.151 -0.287,-0.125 -0.545,-0.097 -0.57,0.602 -0.668,1.777 L -1.87,12.48 c 0,0 0.01,1.234 -0.59,1.571 -0.733,0.413 -1.471,-0.269 -1.471,-0.269 l -9.837,-7.137 -0.463,-1.193 9.957,6.569 c 0,0 0.747,0.413 0.837,0 0.096,-0.43 0.125,-0.55 0.125,-0.55 L -2.268,1.74 c 0,0 0.759,-2.698 0.922,-3.529 0.181,-0.924 1.084,-0.614 1.084,-0.614" />
      </g>
      <g
         transform="translate(673.48654,492.41508)"
         id="g320">
        <path
           inkscape:connector-curvature="0"
           id="path322"
           style="fill:#3df2a8;fill-opacity:1;fill-rule:nonzero;stroke:none"
           d="m 0,0 c -0.154,0.181 -1.163,6.695 -1.387,7.625 -0.672,2.803 -0.985,6.928 -1.956,7.259 -0.524,0.179 -1.61,-0.065 -1.512,-0.447 -0.02,-0.127 -0.013,-0.238 -0.013,-0.238 0,0 -0.164,-13.538 -0.164,-13.909 0,-0.371 -0.314,0.184 -0.314,0.184 l -7.355,14.541 c 0,0 -0.193,0.2 -0.74,0.2 -0.549,0 -0.4,-0.577 -0.4,-0.577 0,0 -0.351,-3.463 -0.353,-3.651 l -0.168,-5.488 c -0.117,-1.038 -0.083,-4.793 -0.203,-4.793 -0.116,0.03 -0.716,-1.319 -1.009,-0.514 l 0.18,-0.541 c 0.035,-0.06 0.154,-0.504 0.389,-0.825 0.26,-0.356 0.517,-0.517 0.687,-0.469 0.008,-0.007 0.018,-0.013 0.028,-0.013 0.571,0 0.869,0.271 1.081,2.557 0.252,2.716 0.366,7.606 0.443,8.884 l 0.143,1.985 0.114,0.737 c 0,0 -0.267,0.843 0.293,-0.545 0.795,-1.964 6.329,-12.406 7.046,-13.468 0.373,-0.555 0.684,-0.747 0.935,-0.738 0.982,0.034 0.809,0.944 0.809,0.944 l -0.095,14.277 0.087,0.629 c 0.009,0.018 -0.058,-0.262 0.221,-0.262 0.339,-0.122 1.073,-4.475 1.397,-5.82 0.235,-0.981 1.557,-7.716 1.677,-7.941" />
      </g>
      <g
         transform="translate(688.90154,492.41508)"
         id="g324">
        <path
           inkscape:connector-curvature="0"
           id="path326"
           style="fill:#3df2a8;fill-opacity:1;fill-rule:nonzero;stroke:none"
           d="m 0,0 c -0.154,0.181 -1.164,6.695 -1.387,7.625 -0.673,2.803 -0.985,6.928 -1.957,7.259 -0.524,0.179 -1.61,-0.065 -1.511,-0.447 -0.02,-0.127 -0.013,-0.238 -0.013,-0.238 0,0 -0.164,-13.538 -0.164,-13.909 0,-0.371 -0.314,0.184 -0.314,0.184 l -7.355,14.541 c 0,0 -0.193,0.2 -0.741,0.2 -0.548,0 -0.399,-0.577 -0.399,-0.577 0,0 -0.351,-3.463 -0.353,-3.651 l -0.168,-5.488 c -0.117,-1.038 -0.083,-4.793 -0.203,-4.793 -0.116,0.03 -0.716,-1.319 -1.01,-0.514 l 0.181,-0.541 c 0.035,-0.06 0.153,-0.504 0.388,-0.825 0.261,-0.356 0.517,-0.517 0.687,-0.469 0.009,-0.007 0.019,-0.013 0.029,-0.013 0.571,0 0.869,0.271 1.081,2.557 0.252,2.716 0.365,7.606 0.443,8.884 l 0.143,1.985 0.114,0.737 c 0,0 -0.267,0.843 0.293,-0.545 0.795,-1.964 6.328,-12.406 7.045,-13.468 0.374,-0.555 0.685,-0.747 0.935,-0.738 0.983,0.034 0.81,0.944 0.81,0.944 l -0.095,14.277 0.086,0.629 c 0.009,0.018 -0.057,-0.262 0.222,-0.262 0.339,-0.122 1.073,-4.475 1.396,-5.82 0.235,-0.981 1.558,-7.716 1.677,-7.941" />
      </g>
      <g
         transform="translate(627.48654,490.90338)"
         id="g328">
        <path
           inkscape:connector-curvature="0"
           id="path330"
           style="fill:#3df2a8;fill-opacity:1;fill-rule:nonzero;stroke:none"
           d="m 0,0 -1.473,-0.258 1.937,10.001 1.542,8.023 c 0,0 -0.081,1.234 0.755,1.513 0.835,0.281 1.498,-0.489 1.498,-0.489 l 8.633,-9.809 0.033,-1.027 -8.758,9.093 c 0,0 -0.306,0.214 -0.581,0.092 C 3.311,17.017 3.352,16.517 3.352,16.517 L 0,0 Z" />
      </g>
      <g
         transform="translate(700.01294,492.71928)"
         id="g332">
        <path
           inkscape:connector-curvature="0"
           id="path334"
           style="fill:#ff63f2;fill-opacity:1;fill-rule:nonzero;stroke:none"
           d="m 0,0 c -0.606,-2.097 -7.53,-1.464 -8.173,-1.357 -0.643,0.107 -1.715,0.857 -1.822,3.107 0,0 -1.58,8.841 -1.366,10.501 0.215,1.661 -1.862,2.222 -3.094,2.329 -1.233,0.107 0.531,0.379 0.531,-1.71 0,-2.089 2.108,-11.281 2.429,-12.459 0.322,-1.179 1.5,-2.893 4.715,-2.893 3.214,0 6.615,0.109 6.615,0.109" />
      </g>
      <g
         transform="translate(651.13694,505.75888)"
         id="g336">
        <path
           inkscape:connector-curvature="0"
           id="path338"
           style="fill:#3df2a8;fill-opacity:1;fill-rule:nonzero;stroke:none"
           d="m 0,0 c 0,0 -0.161,0.414 -0.368,0.414 -0.16,0 -0.184,-0.23 -0.252,-0.437 0,0 -2.827,-7.33 -3.217,-8.272 -0.414,-1.011 -0.46,-1.149 0.344,-0.827 0.919,0.436 2.275,0.551 3.033,0.551 0.759,0 2.206,-0.115 3.057,-0.551 1.172,-0.598 0.712,0.161 0.528,0.781 L 0,0 Z m -2.551,-0.873 c 0.115,0.368 0.712,1.608 0.851,1.861 0.068,0.138 0.689,0.667 1.309,0.667 0.529,0 1.172,-0.184 1.402,-0.667 0.069,-0.137 0.46,-1.08 0.528,-1.263 l 5.236,-12.876 1.037,-1.853 c -0.091,0 -0.183,0.046 -0.206,0.137 0,0 -0.889,-0.008 -1.665,0.638 -0.776,0.647 -1.483,2.373 -1.483,2.373 0,0 -1.149,2.849 -4.872,2.849 -3.745,0 -4.848,-2.896 -4.848,-2.896 l -1.103,-2.78 c -0.069,-0.138 -0.23,-0.391 -0.551,-0.414 -0.23,-0.023 -0.896,0 -1.471,0 l 5.836,14.224 z" />
      </g>
      <g
         transform="translate(707.47284,505.46978)"
         id="g340">
        <path
           inkscape:connector-curvature="0"
           id="path342"
           style="fill:#ff63f2;fill-opacity:1;fill-rule:nonzero;stroke:none"
           d="m 0,0 c 0,0 -0.161,0.414 -0.368,0.414 -0.161,0 -0.184,-0.23 -0.252,-0.437 0,0 -2.827,-7.33 -3.218,-8.272 -0.413,-1.011 -0.459,-1.149 0.345,-0.828 0.919,0.437 2.275,0.552 3.033,0.552 0.759,0 2.206,-0.115 3.057,-0.552 1.171,-0.597 0.712,0.161 0.528,0.782 L 0,0 Z m -2.551,-0.874 c 0.114,0.368 0.712,1.609 0.85,1.862 0.069,0.138 0.689,0.666 1.31,0.666 0.529,0 1.172,-0.184 1.402,-0.666 0.069,-0.138 0.46,-1.08 0.528,-1.264 l 5.905,-14.522 c 0.07,-0.184 -0.046,-0.345 -0.229,-0.345 l -1.447,0 c -0.093,0 -0.184,0.046 -0.207,0.138 l -1.104,3.148 c 0,0 -1.148,2.85 -4.871,2.85 -3.745,0 -4.849,-2.896 -4.849,-2.896 l -1.102,-2.78 c -0.07,-0.138 -0.23,-0.391 -0.552,-0.414 -0.229,-0.023 -0.895,0 -1.471,0 l 5.837,14.223 z" />
      </g>
      <g
         transform="translate(753.39374,502.62018)"
         id="g344">
        <path
           inkscape:connector-curvature="0"
           id="path346"
           style="fill:#ff63f2;fill-opacity:1;fill-rule:nonzero;stroke:none"
           d="m 0,0 c -1.532,-0.1 -3.104,-0.973 -3.839,-1.937 -0.449,-0.589 -0.855,-0.68 -1.216,-0.697 -0.447,0 -0.855,1.195 -1.132,2.265 C -6.571,1.116 -6.812,1.958 -7.286,1.989 -7.822,2.02 -7.987,0.95 -8.31,-1.904 -8.46,-3.235 -8.595,-3.52 -8.976,-3.52 c -0.445,0 -0.735,1.294 -1.029,3.224 -0.553,3.621 -0.698,4.162 -1.054,4.124 -0.332,-0.034 -0.462,-0.664 -0.994,-4.817 -0.307,-2.404 -0.675,-4.476 -1.12,-4.603 -0.53,0 -0.767,1.358 -0.932,3.572 -0.391,5.231 -0.394,8.316 -1.174,8.316 -0.006,0 -0.012,-0.001 -0.018,-0.001 -0.651,-0.029 -0.931,-2.078 -1.407,-4.745 -0.179,-1.002 -1.766,-9.126 -3.551,-10.815 -2.384,-2.255 -6.098,-4.231 -6.557,-2.408 -0.017,0.695 0.932,1.048 1.96,1.375 2.15,0.682 3.275,1.712 3.3,2.813 0.019,1.14 -1.903,2.854 -7.897,3.189 -1.146,0.064 -1.881,0.466 -1.837,1.041 0.033,0.741 1.996,1.303 3.324,1.782 4.093,1.476 5.367,2.133 5.367,3.366 0,1.094 -1.312,3.451 -4.941,4.213 -1.107,0.233 -2.237,0.245 -3.492,-0.233 -1.202,-0.458 -1.355,-0.279 -2.989,-3.904 -2.444,-5.427 -3.348,-11.903 -5.482,-11.388 l -1.192,-1.641 c 0,0 -0.109,-1.651 1.878,-1.651 1.723,0 3.124,7.52 4.654,12.013 1.609,4.094 3.024,6.186 7.02,5.346 1.721,-0.361 2.715,-1.687 2.715,-2.845 -0.098,-0.973 -1.652,-2.131 -3.519,-2.804 -3.227,-1.164 -4.729,-1.093 -4.754,-1.818 -0.031,-0.777 0.201,-1.703 3.204,-2.302 2.415,-0.482 6.111,-1.277 6.111,-2.25 0,-0.834 -0.469,-1.77 -1.503,-2.099 -2.217,-0.703 -4.704,-1.413 -4.681,-2.584 l -0.035,0.055 c 0.823,-2.853 7.203,-1.151 9.252,0.74 2.669,2.465 3.619,10.491 4.02,12.742 0.284,1.586 0.661,2.903 1.036,2.92 0.488,0.064 0.647,-3.684 0.848,-6.381 0.349,-4.671 0.73,-5.969 1.231,-5.969 0.564,0 0.864,1.641 1.54,6.91 0.219,1.709 0.281,2.526 0.621,2.568 0.488,-0.085 0.463,-0.527 0.671,-1.885 0.647,-4.243 0.937,-5.546 1.458,-5.523 0.504,0.034 0.682,1.164 0.993,3.93 0.15,1.323 0.312,2.546 0.63,2.525 0.296,0.063 0.552,-0.298 0.745,-1.043 0.395,-1.526 0.768,-2.969 1.51,-2.969 0.009,0 0.019,0 0.027,0 0.539,0.026 0.976,0.601 1.484,1.266 0.687,0.903 2.201,1.698 3.56,1.787 L 0,0 Z" />
      </g>
      <g
         transform="translate(753.63794,499.10648)"
         id="g348">
        <path
           inkscape:connector-curvature="0"
           id="path350"
           style="fill:#ffffff;fill-opacity:1;fill-rule:nonzero;stroke:none"
           d="m 0,0 c -1.479,0 -2.681,-1.202 -2.681,-2.68 0,-1.478 1.202,-2.681 2.681,-2.681 1.478,0 2.681,1.203 2.681,2.681 C 2.681,-1.202 1.478,0 0,0 m 0,-5.779 c -1.709,0 -3.099,1.39 -3.099,3.099 0,1.708 1.39,3.098 3.099,3.098 1.708,0 3.098,-1.39 3.098,-3.098 0,-1.709 -1.39,-3.099 -3.098,-3.099" />
      </g>
      <g
         transform="translate(752.40644,494.97268)"
         id="g352">
        <path
           inkscape:connector-curvature="0"
           id="path354"
           style="fill:#ffffff;fill-opacity:1;fill-rule:nonzero;stroke:none"
           d="m 0,0 0,2.863 c 0,0 0.029,0.377 0.363,0.232 C 0.698,2.95 2.006,2.049 2.006,2.049 l 0,-0.349 -1.569,1.017 c 0,0 -0.091,0.015 -0.091,-0.087 0,-0.102 0.017,-2.673 0.017,-2.673 L 0,0 Z" />
      </g>
      <g
         transform="translate(754.78044,494.97268)"
         id="g356">
        <path
           inkscape:connector-curvature="0"
           id="path358"
           style="fill:#ffffff;fill-opacity:1;fill-rule:nonzero;stroke:none"
           d="m 0,0 0,2.863 c 0,0 -0.029,0.377 -0.363,0.232 C -0.698,2.95 -2.006,2.049 -2.006,2.049 l 0,-0.349 1.569,1.017 c 0,0 0.091,0.015 0.091,-0.087 0,-0.102 -0.017,-2.673 -0.017,-2.673 L 0,0 Z" />
      </g>
    </g>
  </g>
</svg>
